<svg viewBox="0 0 480 300" fill="none" xmlns="http://www.w3.org/2000/svg">
<g clip-path="url(#clip0_43_4694)">
<path d="M480 -30H0V330H480V-30Z" fill="#0A2C5C"/>
<path opacity="0.85" d="M240 282C346.039 282 432 260.51 432 234C432 207.49 346.039 186 240 186C133.961 186 48 207.49 48 234C48 260.51 133.961 282 240 282Z" fill="#02101F"/>
<path opacity="0.4" d="M240 266.4C339.411 266.4 420 249.207 420 228C420 206.792 339.411 189.6 240 189.6C140.589 189.6 60 206.792 60 228C60 249.207 140.589 266.4 240 266.4Z" fill="#3B82C8"/>
<path d="M96 207.601C102.627 207.601 108 202.228 108 195.601C108 188.973 102.627 183.601 96 183.601C89.3726 183.601 84 188.973 84 195.601C84 202.228 89.3726 207.601 96 207.601Z" fill="#02101F"/>
<path d="M76.8 224.401C89.6 213.201 102.4 213.201 115.2 224.401V246.001H76.8V224.401Z" fill="#02101F"/>
<path d="M156 189.601C162.627 189.601 168 184.228 168 177.601C168 170.973 162.627 165.601 156 165.601C149.373 165.601 144 170.973 144 177.601C144 184.228 149.373 189.601 156 189.601Z" fill="#02101F"/>
<path d="M136.8 206.401C149.6 195.201 162.4 195.201 175.2 206.401V228.001H136.8V206.401Z" fill="#02101F"/>
<path d="M240 181.2C246.627 181.2 252 175.828 252 169.2C252 162.573 246.627 157.2 240 157.2C233.373 157.2 228 162.573 228 169.2C228 175.828 233.373 181.2 240 181.2Z" fill="#02101F"/>
<path d="M220.8 198.001C233.6 186.801 246.4 186.801 259.2 198.001V219.601H220.8V198.001Z" fill="#02101F"/>
<path d="M324 189.601C330.627 189.601 336 184.228 336 177.601C336 170.973 330.627 165.601 324 165.601C317.373 165.601 312 170.973 312 177.601C312 184.228 317.373 189.601 324 189.601Z" fill="#02101F"/>
<path d="M304.8 206.401C317.6 195.201 330.4 195.201 343.2 206.401V228.001H304.8V206.401Z" fill="#02101F"/>
<path d="M384 207.601C390.627 207.601 396 202.228 396 195.601C396 188.973 390.627 183.601 384 183.601C377.373 183.601 372 188.973 372 195.601C372 202.228 377.373 207.601 384 207.601Z" fill="#02101F"/>
<path d="M364.8 224.401C377.6 213.201 390.4 213.201 403.2 224.401V246.001H364.8V224.401Z" fill="#02101F"/>
<g opacity="0.7">
<path d="M220.8 222H187.2C186.537 222 186 222.537 186 223.2V244.8C186 245.463 186.537 246 187.2 246H220.8C221.463 246 222 245.463 222 244.8V223.2C222 222.537 221.463 222 220.8 222Z" fill="white"/>
<path d="M294 219.6H265.2C264.537 219.6 264 220.137 264 220.8V244.8C264 245.462 264.537 246 265.2 246H294C294.663 246 295.2 245.462 295.2 244.8V220.8C295.2 220.137 294.663 219.6 294 219.6Z" fill="white"/>
</g>
</g>
<defs>
<clipPath id="clip0_43_4694">
<rect width="480" height="300" fill="white"/>
</clipPath>
</defs>
</svg>
